<svg xmlns="http://www.w3.org/2000/svg" viewBox="0 0 200 200" width="200" height="200">
  <defs>
    <radialGradient id="bodyGrad" cx="42%" cy="32%" r="78%">
      <stop offset="0%" stop-color="#fbe5c8"></stop>
      <stop offset="55%" stop-color="#f1cfa3"></stop>
      <stop offset="100%" stop-color="#d9a578"></stop>
    </radialGradient>
    <radialGradient id="apertureGrad" cx="50%" cy="55%" r="55%">
      <stop offset="0%" stop-color="#2a0e0a"></stop>
      <stop offset="80%" stop-color="#4a1f1a"></stop>
      <stop offset="100%" stop-color="#5a2820"></stop>
    </radialGradient>
    <radialGradient id="gleam" cx="32%" cy="22%" r="22%">
      <stop offset="0%" stop-color="#fff" stop-opacity="0.55"></stop>
      <stop offset="100%" stop-color="#fff" stop-opacity="0"></stop>
    </radialGradient>
  </defs>
  <ellipse cx="105" cy="178" rx="62" ry="6" fill="#000" opacity="0.30"></ellipse>
  <path d="M 36 108 C 22 98, 16 86, 22 78 C 28 70, 42 76, 50 88 Z" fill="url(#bodyGrad)" stroke="#b58455" stroke-width="0.8" opacity="0.92"></path>
  <path d="M 100 28 C 152 28, 178 70, 176 108 C 174 146, 142 174, 100 174 C 60 174, 30 152, 28 112 C 26 72, 52 28, 100 28 Z" fill="url(#bodyGrad)" stroke="#b58455" stroke-width="1.2"></path>
  <g fill="none" stroke="#b07e54" stroke-width="0.9" opacity="0.40" stroke-linecap="round">
    <path d="M 56 76  C 80 42, 130 42, 156 76"></path>
    <path d="M 60 88  C 82 58, 128 58, 152 88"></path>
  </g>
  <ellipse cx="74" cy="54" rx="34" ry="22" fill="url(#gleam)"></ellipse>
  <ellipse cx="148" cy="142" rx="16" ry="12" fill="url(#apertureGrad)" opacity="0.7"></ellipse>

  <path d="M 62 99 Q 74 110 86 99" fill="none" stroke="#2a1810" stroke-width="3.6" stroke-linecap="round"></path>
  <path d="M 114 99 Q 126 110 138 99" fill="none" stroke="#2a1810" stroke-width="3.6" stroke-linecap="round"></path>
  <path d="M 92 126 Q 100 132 108 126" fill="none" stroke="#3a2418" stroke-width="2.8" stroke-linecap="round"></path>
  <path d="M 28 44 a 16 16 0 1 0 10 18 a 12 12 0 1 1 -10 -18 Z" fill="#e8c99a" opacity="0.95"></path>
  <g fill="#fff" opacity="0.9"><path d="M 170 35 L 171.5 38.5 L 175 40 L 171.5 41.5 L 170 45 L 168.5 41.5 L 165 40 L 168.5 38.5 Z" fill="#c9a96e"></path><path d="M 184 76 L 185.2 78.8 L 188 80 L 185.2 81.2 L 184 84 L 182.8 81.2 L 180 80 L 182.8 78.8 Z" fill="#c9a96e"></path><path d="M 16 94.5 L 17.05 96.95 L 19.5 98 L 17.05 99.05 L 16 101.5 L 14.95 99.05 L 12.5 98 L 14.95 96.95 Z" fill="#c9a96e"></path></g>
  <circle cx="160" cy="56" r="6" fill="#fff" opacity="0.9"></circle>
  <circle cx="60" cy="36" r="3" fill="#fff" opacity="0.7"></circle>
</svg>