<svg xmlns="http://www.w3.org/2000/svg" viewBox="0 0 200 200" width="200" height="200">
  <defs>
    <radialGradient id="bodyGrad" cx="42%" cy="32%" r="78%">
      <stop offset="0%" stop-color="#fbe5c8"></stop>
      <stop offset="55%" stop-color="#f1cfa3"></stop>
      <stop offset="100%" stop-color="#d9a578"></stop>
    </radialGradient>
    <radialGradient id="apertureGrad" cx="50%" cy="55%" r="55%">
      <stop offset="0%" stop-color="#2a0e0a"></stop>
      <stop offset="80%" stop-color="#4a1f1a"></stop>
      <stop offset="100%" stop-color="#5a2820"></stop>
    </radialGradient>
    <radialGradient id="gleam" cx="32%" cy="22%" r="22%">
      <stop offset="0%" stop-color="#fff" stop-opacity="0.55"></stop>
      <stop offset="100%" stop-color="#fff" stop-opacity="0"></stop>
    </radialGradient>
  </defs>
  <ellipse cx="105" cy="178" rx="62" ry="6" fill="#000" opacity="0.30"></ellipse>
  <path d="M 36 108 C 22 98, 16 86, 22 78 C 28 70, 42 76, 50 88 Z" fill="url(#bodyGrad)" stroke="#b58455" stroke-width="0.8" opacity="0.92"></path>
  <path d="M 100 28 C 152 28, 178 70, 176 108 C 174 146, 142 174, 100 174 C 60 174, 30 152, 28 112 C 26 72, 52 28, 100 28 Z" fill="url(#bodyGrad)" stroke="#b58455" stroke-width="1.2"></path>
  <g fill="none" stroke="#b07e54" stroke-width="0.9" opacity="0.40" stroke-linecap="round">
    <path d="M 56 76  C 80 42, 130 42, 156 76"></path>
    <path d="M 60 88  C 82 58, 128 58, 152 88"></path>
  </g>
  <ellipse cx="74" cy="54" rx="34" ry="22" fill="url(#gleam)"></ellipse>
  <ellipse cx="148" cy="142" rx="16" ry="12" fill="url(#apertureGrad)" opacity="0.7"></ellipse>

  <path d="M 74 91 L 77.3 98.7 L 85 102 L 77.3 105.3 L 74 113 L 70.7 105.3 L 63 102 L 70.7 98.7 Z" fill="#c9a96e"></path>
  <path d="M 126 91 L 129.3 98.7 L 137 102 L 129.3 105.3 L 126 113 L 122.7 105.3 L 115 102 L 122.7 98.7 Z" fill="#c9a96e"></path>
  <path d="M 86 128 Q 100 142 114 128" fill="none" stroke="#3a2418" stroke-width="3.4" stroke-linecap="round"></path>
  <g opacity="0.95"><path d="M 28 45 L 30.1 49.9 L 35 52 L 30.1 54.1 L 28 59 L 25.9 54.1 L 21 52 L 25.9 49.9 Z" fill="#ffd700"></path><path d="M 174 60 L 175.8 64.2 L 180 66 L 175.8 67.8 L 174 72 L 172.2 67.8 L 168 66 L 172.2 64.2 Z" fill="#ffd700"></path><path d="M 180 133 L 181.5 136.5 L 185 138 L 181.5 139.5 L 180 143 L 178.5 139.5 L 175 138 L 178.5 136.5 Z" fill="#ffd700"></path><path d="M 20 119 L 21.5 122.5 L 25 124 L 21.5 125.5 L 20 129 L 18.5 125.5 L 15 124 L 18.5 122.5 Z" fill="#ffd700"></path></g>
</svg>