<svg xmlns="http://www.w3.org/2000/svg" viewBox="0 0 200 200" width="200" height="200">
  <defs>
    <radialGradient id="bodyGrad" cx="42%" cy="32%" r="78%">
      <stop offset="0%" stop-color="#fbe5c8"></stop>
      <stop offset="55%" stop-color="#f1cfa3"></stop>
      <stop offset="100%" stop-color="#d9a578"></stop>
    </radialGradient>
    <radialGradient id="apertureGrad" cx="50%" cy="55%" r="55%">
      <stop offset="0%" stop-color="#2a0e0a"></stop>
      <stop offset="80%" stop-color="#4a1f1a"></stop>
      <stop offset="100%" stop-color="#5a2820"></stop>
    </radialGradient>
    <radialGradient id="gleam" cx="32%" cy="22%" r="22%">
      <stop offset="0%" stop-color="#fff" stop-opacity="0.55"></stop>
      <stop offset="100%" stop-color="#fff" stop-opacity="0"></stop>
    </radialGradient>
  </defs>
  <ellipse cx="105" cy="178" rx="62" ry="6" fill="#000" opacity="0.30"></ellipse>
  <path d="M 36 108 C 22 98, 16 86, 22 78 C 28 70, 42 76, 50 88 Z" fill="url(#bodyGrad)" stroke="#b58455" stroke-width="0.8" opacity="0.92"></path>
  <path d="M 100 28 C 152 28, 178 70, 176 108 C 174 146, 142 174, 100 174 C 60 174, 30 152, 28 112 C 26 72, 52 28, 100 28 Z" fill="url(#bodyGrad)" stroke="#b58455" stroke-width="1.2"></path>
  <g fill="none" stroke="#b07e54" stroke-width="0.9" opacity="0.40" stroke-linecap="round">
    <path d="M 56 76  C 80 42, 130 42, 156 76"></path>
    <path d="M 60 88  C 82 58, 128 58, 152 88"></path>
  </g>
  <ellipse cx="74" cy="54" rx="34" ry="22" fill="url(#gleam)"></ellipse>
  <ellipse cx="148" cy="142" rx="16" ry="12" fill="url(#apertureGrad)" opacity="0.7"></ellipse>

  <path d="M 62 105 Q 74 91 86 105" fill="none" stroke="#2a1810" stroke-width="3.6" stroke-linecap="round"></path>
  <path d="M 114 105 Q 126 91 138 105" fill="none" stroke="#2a1810" stroke-width="3.6" stroke-linecap="round"></path>
  <ellipse cx="100" cy="128" rx="6" ry="7" fill="#3a2418"></ellipse>
  <ellipse cx="54" cy="120" rx="10" ry="5" fill="#e89a8a" opacity="0.7"></ellipse>
  <ellipse cx="146" cy="120" rx="10" ry="5" fill="#e89a8a" opacity="0.7"></ellipse>
  <g transform="translate(140 24)">
    <rect x="-4" y="-16" width="62" height="36" rx="16" fill="#221f33" stroke="#c9a96e" stroke-width="1.8"></rect>
    <path d="M 8 18 L 4 26 L 14 20 Z" fill="#221f33" stroke="#c9a96e" stroke-width="1.8" stroke-linejoin="round"></path>
    <text x="27" y="8" font-family="&#39;Gowun Batang&#39;, serif" font-size="18" font-weight="700" fill="#e8c99a" text-anchor="middle" letter-spacing="0.05em">안녕!</text>
  </g>
</svg>