<svg xmlns="http://www.w3.org/2000/svg" viewBox="0 0 200 200" width="200" height="200">
  <defs>
    <radialGradient id="bodyGrad" cx="42%" cy="32%" r="78%">
      <stop offset="0%" stop-color="#fbe5c8"></stop>
      <stop offset="55%" stop-color="#f1cfa3"></stop>
      <stop offset="100%" stop-color="#d9a578"></stop>
    </radialGradient>
    <radialGradient id="apertureGrad" cx="50%" cy="55%" r="55%">
      <stop offset="0%" stop-color="#2a0e0a"></stop>
      <stop offset="80%" stop-color="#4a1f1a"></stop>
      <stop offset="100%" stop-color="#5a2820"></stop>
    </radialGradient>
    <radialGradient id="gleam" cx="32%" cy="22%" r="22%">
      <stop offset="0%" stop-color="#fff" stop-opacity="0.55"></stop>
      <stop offset="100%" stop-color="#fff" stop-opacity="0"></stop>
    </radialGradient>
    <linearGradient id="hatGrad" x1="0%" y1="0%" x2="0%" y2="100%">
      <stop offset="0%" stop-color="#4a3878"></stop>
      <stop offset="60%" stop-color="#2e2050"></stop>
      <stop offset="100%" stop-color="#1f1735"></stop>
    </linearGradient>
  </defs>
  <ellipse cx="105" cy="178" rx="62" ry="6" fill="#000" opacity="0.30"></ellipse>
  <path d="M 36 108 C 22 98, 16 86, 22 78 C 28 70, 42 76, 50 88 Z" fill="url(#bodyGrad)" stroke="#b58455" stroke-width="0.8" opacity="0.92"></path>
  <path d="M 100 28 C 152 28, 178 70, 176 108 C 174 146, 142 174, 100 174 C 60 174, 30 152, 28 112 C 26 72, 52 28, 100 28 Z" fill="url(#bodyGrad)" stroke="#b58455" stroke-width="1.2"></path>
  <g fill="none" stroke="#b07e54" stroke-width="0.9" opacity="0.55" stroke-linecap="round">
    <path d="M 56 86  C 80 50, 130 50, 156 86"></path>
    <path d="M 60 96  C 82 64, 128 64, 152 96"></path>
    <path d="M 66 106 C 84 78, 124 78, 146 106"></path>
    <path d="M 74 114 C 88 92, 120 92, 138 114"></path>
  </g>
  <ellipse cx="74" cy="58" rx="34" ry="22" fill="url(#gleam)"></ellipse>
  <ellipse cx="148" cy="138" rx="20" ry="14" fill="url(#apertureGrad)" opacity="0.85"></ellipse>
  <ellipse cx="148" cy="138" rx="20" ry="14" fill="none" stroke="#f0d2a4" stroke-width="1.4" opacity="0.55"></ellipse>


  <path d="M 72 94 Q 78 88 84 94" fill="none" stroke="#2a1810" stroke-width="2.4" stroke-linecap="round"></path>
  <path d="M 112 94 Q 118 88 124 94" fill="none" stroke="#2a1810" stroke-width="2.4" stroke-linecap="round"></path>
  <path d="M 88 110 Q 98 117 108 110" fill="none" stroke="#3a2418" stroke-width="2.2" stroke-linecap="round"></path>


  <ellipse cx="100" cy="33" rx="48" ry="6.5" fill="#1f1735" stroke="#5a4a8c" stroke-width="0.7" opacity="0.96"></ellipse>
  <path d="M 62 33 L 138 30 L 92 4 Z" fill="url(#hatGrad)" stroke="#1f1735" stroke-width="0.9" stroke-linejoin="round"></path>
  <path d="M 102 21 L 103.5 25 L 107 26 L 103.5 27 L 102 31 L 100.5 27 L 97 26 L 100.5 25 Z" fill="#e8c99a" opacity="0.9"></path>
  <path d="M 88 14 L 89 17 L 92 18 L 89 19 L 88 22 L 87 19 L 84 18 L 87 17 Z" fill="#ffd700" opacity="0.92"></path>
  <path d="M 92 4 L 93.2 7 L 96.2 8 L 93.2 9 L 92 12 L 90.8 9 L 87.8 8 L 90.8 7 Z" fill="#ffd700"></path>
</svg>
