<svg xmlns="http://www.w3.org/2000/svg" viewBox="0 0 200 200" width="200" height="200">
  <defs>
    <radialGradient id="bodyGrad" cx="42%" cy="32%" r="78%">
      <stop offset="0%" stop-color="#fbe5c8"></stop>
      <stop offset="55%" stop-color="#f1cfa3"></stop>
      <stop offset="100%" stop-color="#d9a578"></stop>
    </radialGradient>
    <radialGradient id="apertureGrad" cx="50%" cy="55%" r="55%">
      <stop offset="0%" stop-color="#2a0e0a"></stop>
      <stop offset="80%" stop-color="#4a1f1a"></stop>
      <stop offset="100%" stop-color="#5a2820"></stop>
    </radialGradient>
    <radialGradient id="gleam" cx="32%" cy="22%" r="22%">
      <stop offset="0%" stop-color="#fff" stop-opacity="0.55"></stop>
      <stop offset="100%" stop-color="#fff" stop-opacity="0"></stop>
    </radialGradient>
    <radialGradient id="opusAura" cx="50%" cy="50%" r="50%">
      <stop offset="0%" stop-color="#b8a4ff" stop-opacity="0.28"></stop>
      <stop offset="65%" stop-color="#8b7ec4" stop-opacity="0.10"></stop>
      <stop offset="100%" stop-color="#8b7ec4" stop-opacity="0"></stop>
    </radialGradient>
    <linearGradient id="lens" x1="0%" y1="0%" x2="0%" y2="100%">
      <stop offset="0%" stop-color="#fff" stop-opacity="0.20"></stop>
      <stop offset="100%" stop-color="#8b7ec4" stop-opacity="0.08"></stop>
    </linearGradient>
  </defs>
  <circle cx="100" cy="100" r="96" fill="url(#opusAura)"></circle>
  <ellipse cx="105" cy="178" rx="62" ry="6" fill="#000" opacity="0.30"></ellipse>
  <path d="M 36 108 C 22 98, 16 86, 22 78 C 28 70, 42 76, 50 88 Z" fill="url(#bodyGrad)" stroke="#b58455" stroke-width="0.8" opacity="0.92"></path>
  <path d="M 100 28 C 152 28, 178 70, 176 108 C 174 146, 142 174, 100 174 C 60 174, 30 152, 28 112 C 26 72, 52 28, 100 28 Z" fill="url(#bodyGrad)" stroke="#b58455" stroke-width="1.2"></path>
  <g fill="none" stroke="#b07e54" stroke-width="0.9" opacity="0.40" stroke-linecap="round">
    <path d="M 56 76  C 80 42, 130 42, 156 76"></path>
    <path d="M 60 88  C 82 58, 128 58, 152 88"></path>
  </g>
  <ellipse cx="74" cy="54" rx="34" ry="22" fill="url(#gleam)"></ellipse>
  <ellipse cx="148" cy="142" rx="16" ry="12" fill="url(#apertureGrad)" opacity="0.65"></ellipse>

  
  <path d="M 58 84 L 90 86" stroke="#3a2418" stroke-width="4" stroke-linecap="round"></path>
  <path d="M 142 84 L 110 86" stroke="#3a2418" stroke-width="4" stroke-linecap="round"></path>

  
  <circle cx="74" cy="108" r="9" fill="#2a1810"></circle>
  <circle cx="126" cy="108" r="9" fill="#2a1810"></circle>
  <circle cx="71" cy="105" r="2.6" fill="#fff" opacity="0.95"></circle>
  <circle cx="123" cy="105" r="2.6" fill="#fff" opacity="0.95"></circle>
  <circle cx="76" cy="111" r="1.2" fill="#fff" opacity="0.5"></circle>
  <circle cx="128" cy="111" r="1.2" fill="#fff" opacity="0.5"></circle>

  <path d="M 88 138 L 112 136" stroke="#3a2418" stroke-width="3.4" stroke-linecap="round"></path>

  
  <circle cx="62" cy="108" r="26" fill="url(#lens)"></circle>
  <circle cx="138" cy="108" r="26" fill="url(#lens)"></circle>
  <circle cx="62" cy="108" r="26" fill="none" stroke="#2a1810" stroke-width="6"></circle>
  <circle cx="138" cy="108" r="26" fill="none" stroke="#2a1810" stroke-width="6"></circle>
  <circle cx="62" cy="108" r="23" fill="none" stroke="#5a3a20" stroke-width="1.2" opacity="0.55"></circle>
  <circle cx="138" cy="108" r="23" fill="none" stroke="#5a3a20" stroke-width="1.2" opacity="0.55"></circle>

  
  <path d="M 88 108 Q 100 100 112 108" fill="none" stroke="#2a1810" stroke-width="5.6" stroke-linecap="round"></path>

  
  <path d="M 36 108 L 20 100" stroke="#2a1810" stroke-width="5.4" stroke-linecap="round"></path>
  <path d="M 164 108 L 180 100" stroke="#2a1810" stroke-width="5.4" stroke-linecap="round"></path>

  
  <path d="M 48 96 L 54 90" stroke="#fff" stroke-width="3" stroke-linecap="round" opacity="0.78"></path>
  <path d="M 124 96 L 130 90" stroke="#fff" stroke-width="3" stroke-linecap="round" opacity="0.78"></path>
</svg>