<svg xmlns="http://www.w3.org/2000/svg" viewBox="-10 -50 220 250" width="220" height="250">
  <defs>
    <radialGradient id="bodyGrad" cx="42%" cy="32%" r="78%">
      <stop offset="0%" stop-color="#fbe5c8"></stop>
      <stop offset="55%" stop-color="#f1cfa3"></stop>
      <stop offset="100%" stop-color="#d9a578"></stop>
    </radialGradient>
    <radialGradient id="apertureGrad" cx="50%" cy="55%" r="55%">
      <stop offset="0%" stop-color="#2a0e0a"></stop>
      <stop offset="80%" stop-color="#4a1f1a"></stop>
      <stop offset="100%" stop-color="#5a2820"></stop>
    </radialGradient>
    <radialGradient id="gleam" cx="32%" cy="22%" r="22%">
      <stop offset="0%" stop-color="#fff" stop-opacity="0.55"></stop>
      <stop offset="100%" stop-color="#fff" stop-opacity="0"></stop>
    </radialGradient>
    <linearGradient id="hatBody" x1="20%" y1="0%" x2="80%" y2="100%">
      <stop offset="0%" stop-color="#4a4070"></stop>
      <stop offset="40%" stop-color="#332b54"></stop>
      <stop offset="100%" stop-color="#1c163a"></stop>
    </linearGradient>
    <linearGradient id="brimGrad" x1="0%" y1="0%" x2="0%" y2="100%">
      <stop offset="0%" stop-color="#2a2444"></stop>
      <stop offset="100%" stop-color="#15102a"></stop>
    </linearGradient>
    <linearGradient id="bandGrad" x1="0%" y1="0%" x2="0%" y2="100%">
      <stop offset="0%" stop-color="#5e528a"></stop>
      <stop offset="100%" stop-color="#3a3164"></stop>
    </linearGradient>
  </defs>
  <ellipse cx="105" cy="178" rx="62" ry="6" fill="#000" opacity="0.30"></ellipse>
  <path d="M 36 108 C 22 98, 16 86, 22 78 C 28 70, 42 76, 50 88 Z" fill="url(#bodyGrad)" stroke="#b58455" stroke-width="0.8" opacity="0.92"></path>
  <path d="M 100 28 C 152 28, 178 70, 176 108 C 174 146, 142 174, 100 174 C 60 174, 30 152, 28 112 C 26 72, 52 28, 100 28 Z" fill="url(#bodyGrad)" stroke="#b58455" stroke-width="1.2"></path>
  <g fill="none" stroke="#b07e54" stroke-width="0.9" opacity="0.40" stroke-linecap="round">
    <path d="M 56 76  C 80 42, 130 42, 156 76"></path>
    <path d="M 60 88  C 82 58, 128 58, 152 88"></path>
  </g>
  <ellipse cx="74" cy="54" rx="34" ry="22" fill="url(#gleam)"></ellipse>
  <ellipse cx="148" cy="142" rx="16" ry="12" fill="url(#apertureGrad)" opacity="0.7"></ellipse>

  <ellipse cx="100" cy="62" rx="92" ry="7" fill="#0a0820" opacity="0.55"></ellipse>
  <path d="M 14 52&#xA;           Q 24 44, 44 46&#xA;           Q 100 34, 156 46&#xA;           Q 176 44, 186 52&#xA;           Q 178 66, 162 70&#xA;           Q 100 78, 38 70&#xA;           Q 22 66, 14 52 Z" fill="url(#brimGrad)" stroke="#0a0820" stroke-width="1.6"></path>
  <path d="M 24 48 Q 100 38 176 48" fill="none" stroke="#7d70a8" stroke-width="1.4" opacity="0.55" stroke-linecap="round"></path>
  <path d="M 44 46&#xA;           C 44 24, 60 6, 92 -6&#xA;           C 130 -20, 158 -30, 168 -36&#xA;           C 162 -22, 158 -6, 156 8&#xA;           C 156 22, 156 36, 156 46&#xA;           Z" fill="url(#hatBody)" stroke="#0a0820" stroke-width="1.6" stroke-linejoin="round"></path>
  <g fill="none" stroke="#0a0820" stroke-width="1" opacity="0.55" stroke-linecap="round">
    <path d="M 60 30 C 64 14, 82 0, 110 -10"></path>
    <path d="M 86 38 C 96 22, 118 8, 142 -6"></path>
  </g>
  <path d="M 56 34 C 60 18, 76 2, 100 -6" fill="none" stroke="#7d70a8" stroke-width="2" opacity="0.5" stroke-linecap="round"></path>
  <g opacity="0.7">
    <path d="M 104 8 L 116 2 L 126 8 L 116 16 Z" fill="#3a3164" stroke="#0a0820" stroke-width="0.8" stroke-linejoin="round"></path>
  </g>
  <path d="M 44 44 Q 100 56 156 44 L 158 50 Q 100 64 42 50 Z" fill="url(#bandGrad)" stroke="#0a0820" stroke-width="1.2"></path>
  <path d="M 48 46 Q 100 58 152 46" fill="none" stroke="#8b7ec4" stroke-width="0.6" stroke-dasharray="2 2" opacity="0.7"></path>
  <g transform="translate(100 50)">
    <rect x="-9" y="-5" width="18" height="10" rx="1.5" fill="#e0b56a" stroke="#7a5524" stroke-width="0.8"></rect>
    <rect x="-6" y="-2.5" width="12" height="5" rx="0.6" fill="none" stroke="#7a5524" stroke-width="0.8"></rect>
    <rect x="-8" y="-4" width="3" height="1.4" fill="#fff5d0" opacity="0.7"></rect>
  </g>
  <g fill="#ffd700" opacity="0.95">
    <path d="M 30 20 L 31 24 L 35 25 L 31 26 L 30 30 L 29 26 L 25 25 L 29 24 Z"></path>
    <path d="M 184 6 L 185 10 L 189 11 L 185 12 L 184 16 L 183 12 L 179 11 L 183 10 Z"></path>
    <path d="M 134 -22 L 135 -19 L 138 -18 L 135 -17 L 134 -14 L 133 -17 L 130 -18 L 133 -19 Z"></path>
  </g>
  <path d="M 60 -12 a 6 6 0 1 0 4 7 a 4.5 4.5 0 1 1 -4 -7 Z" fill="#e8c99a" opacity="0.95"></path>

  <path d="M 58 84 L 90 86" stroke="#3a2418" stroke-width="3.6" stroke-linecap="round"></path>
  <path d="M 142 84 L 110 86" stroke="#3a2418" stroke-width="3.6" stroke-linecap="round"></path>
  <circle cx="74" cy="106" r="9" fill="#2a1810"></circle>
  <circle cx="126" cy="106" r="9" fill="#2a1810"></circle>
  <circle cx="71" cy="103" r="2.6" fill="#fff" opacity="0.95"></circle>
  <circle cx="123" cy="103" r="2.6" fill="#fff" opacity="0.95"></circle>
  <circle cx="76" cy="109" r="1.2" fill="#fff" opacity="0.5"></circle>
  <circle cx="128" cy="109" r="1.2" fill="#fff" opacity="0.5"></circle>
  <path d="M 88 130 L 112 128" stroke="#3a2418" stroke-width="3.4" stroke-linecap="round"></path>
</svg>