<svg xmlns="http://www.w3.org/2000/svg" viewBox="0 -50 200 250" width="200" height="250" preserveAspectRatio="xMidYMid meet">
  <defs>
    <linearGradient id="hatBody" x1="20%" y1="0%" x2="80%" y2="100%">
      <stop offset="0%" stop-color="#4a4070"></stop>
      <stop offset="40%" stop-color="#332b54"></stop>
      <stop offset="100%" stop-color="#1c163a"></stop>
    </linearGradient>
    <linearGradient id="brimGrad" x1="0%" y1="0%" x2="0%" y2="100%">
      <stop offset="0%" stop-color="#2a2444"></stop>
      <stop offset="100%" stop-color="#15102a"></stop>
    </linearGradient>
    <linearGradient id="bandGrad" x1="0%" y1="0%" x2="0%" y2="100%">
      <stop offset="0%" stop-color="#5e528a"></stop>
      <stop offset="100%" stop-color="#3a3164"></stop>
    </linearGradient>
  </defs>
  <g transform="translate(0 16)">
    <ellipse cx="100" cy="46" rx="92" ry="7" fill="#0a0820" opacity="0.55"></ellipse>
    <path d="M 14 36 Q 24 28, 44 30 Q 100 18, 156 30 Q 176 28, 186 36 Q 178 50, 162 54 Q 100 62, 38 54 Q 22 50, 14 36 Z" fill="url(#brimGrad)" stroke="#0a0820" stroke-width="1.6"></path>
    <path d="M 24 32 Q 100 22 176 32" fill="none" stroke="#7d70a8" stroke-width="1.4" opacity="0.55" stroke-linecap="round"></path>
    <path d="M 44 30 C 44 8, 60 -10, 92 -22 C 130 -36, 158 -46, 168 -52 C 162 -38, 158 -22, 156 -8 C 156 6, 156 20, 156 30 Z" fill="url(#hatBody)" stroke="#0a0820" stroke-width="1.6" stroke-linejoin="round"></path>
    <path d="M 56 18 C 60 2, 76 -14, 100 -22" fill="none" stroke="#7d70a8" stroke-width="2" opacity="0.55" stroke-linecap="round"></path>
    <path d="M 86 22 C 96 6, 118 -8, 142 -22" fill="none" stroke="#0a0820" stroke-width="1.1" opacity="0.6" stroke-linecap="round"></path>
    <path d="M 44 28 Q 100 40 156 28 L 158 34 Q 100 48 42 34 Z" fill="url(#bandGrad)" stroke="#0a0820" stroke-width="1.2"></path>
    <path d="M 48 30 Q 100 42 152 30" fill="none" stroke="#8b7ec4" stroke-width="0.6" stroke-dasharray="2 2" opacity="0.7"></path>
    <g transform="translate(100 34)">
      <rect x="-9" y="-5" width="18" height="10" rx="1.5" fill="#e0b56a" stroke="#7a5524" stroke-width="0.8"></rect>
      <rect x="-6" y="-2.5" width="12" height="5" rx="0.6" fill="none" stroke="#7a5524" stroke-width="0.8"></rect>
      <rect x="-8" y="-4" width="3" height="1.4" fill="#fff5d0" opacity="0.7"></rect>
    </g>
    <g transform="translate(160 -42)">
      <path d="M 0 -7 L 2 -2 L 7 0 L 2 2 L 0 7 L -2 2 L -7 0 L -2 -2 Z" fill="#ffd700" stroke="#b8894a" stroke-width="0.6"></path>
      <circle cx="0" cy="0" r="1.4" fill="#fff8d8"></circle>
    </g>
    <path d="M 60 -28 a 6 6 0 1 0 4 7 a 4.5 4.5 0 1 1 -4 -7 Z" fill="#e8c99a" opacity="0.95"></path>
    <g fill="#ffd700" opacity="0.9">
      <path d="M 30 4 L 31 8 L 35 9 L 31 10 L 30 14 L 29 10 L 25 9 L 29 8 Z"></path>
      <path d="M 184 -10 L 185 -6 L 189 -5 L 185 -4 L 184 0 L 183 -4 L 179 -5 L 183 -6 Z"></path>
      <path d="M 134 -38 L 135 -35 L 138 -34 L 135 -33 L 134 -30 L 133 -33 L 130 -34 L 133 -35 Z"></path>
    </g>
  </g>
</svg>